<svg clip-rule="evenodd" fill-rule="evenodd" height="2048" image-rendering="optimizeQuality" shape-rendering="geometricPrecision" text-rendering="geometricPrecision" viewBox="0 0 2048 2048" width="2048" xmlns="http://www.w3.org/2000/svg" xmlns:xlink="http://www.w3.org/1999/xlink"><clipPath id="a"><path d="m1024-.0011811c565.539 0 1024 458.462 1024 1024 0 565.539-458.462 1024-1024 1024-565.539 0-1024-458.462-1024-1024 0-565.539 458.462-1024 1024-1024z"/></clipPath><path d="m1024-.0011811c565.539 0 1024 458.462 1024 1024 0 565.539-458.462 1024-1024 1024-565.539 0-1024-458.462-1024-1024 0-565.539 458.462-1024 1024-1024z" fill="#80deea"/><g clip-path="url(#a)" fill="#4dd0e1"><path d="m1185.79 882.568 1135.88 1135.882-1.07 1.53-1.2 1.62-1.32 1.68-1.43 1.76-1.55 1.83-1.66 1.89-1.76 1.95-1.86 2.01-1.96 2.06-2.06 2.11-2.14 2.16-2.24 2.2-2.32 2.24-2.4 2.27-2.47 2.31-2.56 2.34-2.62 2.36-2.68 2.39-2.75 2.4-2.81 2.41-2.87 2.43-2.92 2.43-2.97 2.44-3.01 2.44-3.06 2.43-3.09 2.43-3.13 2.41-3.16 2.41-3.19 2.38-3.21 2.36-3.23 2.34-3.26 2.31-1135.88-1135.881 3.25-2.309 3.24-2.339 3.21-2.362 3.19-2.385 3.16-2.402 3.13-2.417 3.09-2.426 3.06-2.434 3.01-2.438 2.97-2.436 2.92-2.435 2.86-2.426 2.81-2.416 2.76-2.401 2.68-2.384 2.62-2.362 2.55-2.336 2.48-2.309 2.4-2.276 2.32-2.241 2.23-2.2 2.15-2.159 2.06-2.112 1.96-2.061 1.86-2.009 1.76-1.95 1.66-1.891 1.54-1.826 1.44-1.757 1.32-1.687 1.2-1.612z"/><path d="m1487.63 1194.82 1135.88 1135.89 1.56 1.78 1.45 1.86 1.34 1.93 1.23 1.99 1.11 2.05.99 2.1.85 2.16.72 2.2.57 2.25.43 2.3.26 2.33.11 2.37-.06 2.39-.24 2.43-.41 2.45-1135.88-1135.88.41-2.45.24-2.43.06-2.4-.11-2.36-.26-2.34-.43-2.29-.57-2.25-.72-2.2-.85-2.16-.99-2.11-1.11-2.04-1.23-1.99-1.34-1.93-1.45-1.86z"/><path d="m1497.54 1227.42 1135.88 1135.88-.01.04v.03l-.01.03-.01.04v.03l-.01.03-.01.04v.03l-1135.88-1135.88v-.03l.01-.04.01-.03v-.04l.01-.03.01-.03v-.04z"/><path d="m940.175 952.902 1135.885 1135.878-3.26-2.3-3.23-2.34-3.21-2.37-3.19-2.38-3.16-2.4-3.13-2.42-3.1-2.43-3.05-2.43-3.02-2.44-2.97-2.43-2.91-2.44-2.87-2.43-2.81-2.41-2.75-2.4-2.69-2.39-2.62-2.36-2.55-2.34-2.48-2.3-2.4-2.28-2.32-2.24-2.23-2.2-1135.883-1135.885 2.234 2.201 2.32 2.241 2.4 2.276 2.477 2.309 2.55 2.336 2.621 2.362 2.688 2.384 2.751 2.402 2.809 2.416 2.867 2.427 2.92 2.434 2.968 2.437 3.014 2.437 3.055 2.435 3.095 2.427 3.129 2.416 3.162 2.402 3.189 2.384 3.212 2.364 3.235 2.338z"/><path d="m1441.87 1488.37 1135.88 1135.88-.56 2.46-.61 2.44-.66 2.41-.73 2.38-.78 2.34-.83 2.3-.89 2.27-.95 2.21-1 2.17-1.06 2.12-1.12 2.05-1.17 2-1.24 1.94-1.28 1.87-1.35 1.8-1.4 1.73-1.46 1.64-1.52 1.57-1.58 1.49-1.63 1.39-1.7 1.31-1.75 1.2-1.81 1.11-1.87 1.01-1.93.91-1.98.79-2.05.68-2.1.57-2.17.44-2.22.33-2.29.19-2.34.07h-126.88l-1135.88-1135.88h126.88l2.34-.07 2.29-.19 2.22-.33 2.17-.44 2.1-.57 2.05-.68 1.98-.8 1.93-.9 1.87-1.01 1.81-1.11 1.75-1.21 1.69-1.3 1.64-1.4 1.58-1.48 1.51-1.57 1.47-1.65 1.4-1.72 1.34-1.8 1.29-1.87 1.24-1.94 1.17-2 1.12-2.06 1.06-2.11 1-2.17.95-2.22.89-2.26.83-2.3.78-2.35.72-2.38.67-2.4.61-2.44z"/><path d="m1268.96 1537.56 1135.88 1135.88v2.26l-1135.88-1135.88z"/><path d="m779.038 1537.56 1135.882 1135.88h-126.88l-2.34-.07-2.29-.19-2.22-.33-2.16-.44-2.11-.57-2.04-.68-1.99-.79-1.93-.91-1.87-1.01-1.81-1.11-1.75-1.2-1.69-1.31-1135.884-1135.88 1.693 1.3 1.752 1.21 1.81 1.11 1.869 1.01 1.928.9 1.987.8 2.045.68 2.105.57 2.165.44 2.223.33 2.284.19 2.343.07z"/><path d="m1406.31 1541.6 1135.88 1135.88.7.9.52 1.03.33 1.13.12 1.22v32.07l-.12 1.22-.33 1.13-.52 1.03-.7.9-.84.74-.96.56-1.06.35-1.14.12h-761.34l-1.13-.12-1.07-.35-.96-.56-1135.878-1135.89.962.56 1.06.36 1.138.12h761.338l1.14-.12 1.06-.36.96-.56.84-.74.69-.89.53-1.03.33-1.14.11-1.21v-32.08l-.11-1.21-.33-1.14-.53-1.02z"/><path d="m836.488 794.932 1135.882 1135.878-1.33.07-1.33-.03-1.35-.13-1.36-.23-1.36-.31-1.36-.42-1.37-.5-1.36-.59-1.37-.68-1.35-.76-1.36-.85-1.34-.92-1.34-1.01-1.32-1.08-1.3-1.17-1.29-1.23-1135.886-1135.882 1.291 1.234 1.307 1.161 1.321 1.084 1.334 1.006 1.345.929 1.352.845 1.36.763 1.363.677 1.365.592 1.367.502 1.364.412 1.36.319 1.355.226 1.348.13 1.337.031z"/><path d="m1349.95 1147.04 1135.89 1135.88 1.44 1.6 1.43 1.71 1.4 1.82 1.39 1.92 1.36 2.02 1.35 2.12 1.33 2.22 1.32 2.31 1.29 2.41 1.28 2.49 1.26 2.58 1.24 2.67 1.23 2.75 1.21 2.84-1135.88-1135.88-1.21-2.84-1.23-2.75-1.24-2.67-1.26-2.58-1.28-2.5-1.3-2.4-1.31-2.31-1.33-2.22-1.35-2.12-1.36-2.02-1.39-1.92-1.4-1.82-1.43-1.71z"/><path d="m1182.34 502.603 1135.88 1135.887 4.05 4.9 3.79 5.26 3.56 5.61 3.31 5.98 3.07 6.33 2.83 6.71 2.6 7.08 2.36 7.45 2.14 7.83 1.9 8.21 1.68 8.59 1.46 8.99 1.23 9.37 1.02 9.78.8 10.16.59 10.58.38 10.98.17 11.38-.04 11.8-.24 12.22-.44 12.63-.64 13.06-1135.88-1135.881.64-13.058.44-12.636.24-12.216.04-11.799-.17-11.387-.38-10.979-.59-10.572-.8-10.169-1.02-9.771-1.24-9.376-1.45-8.985-1.68-8.594-1.91-8.211-2.13-7.83-2.36-7.452-2.6-7.077-2.83-6.706-3.07-6.338-3.31-5.975-3.56-5.614-3.79-5.257z"/><path d="m1217.92 697.509 1135.88 1135.881.08 1.41.07 1.4.07 1.4.06 1.41.06 1.4.05 1.4.05 1.41.03 1.4-1135.88-1135.882-.04-1.402-.04-1.404-.05-1.404-.06-1.403-.06-1.404-.07-1.404-.07-1.404z"/><path d="m1248.72 706.394 1135.88 1135.886 1 1.13.94 1.23.88 1.32.82 1.4.75 1.48.69 1.56.63 1.63.55 1.71.5 1.77.42 1.84.36 1.89.29 1.96.21 2.01.15 2.05.08 2.11.01 2.15-.07 2.18-.14 2.23-.21 2.26-.29 2.28-.36 2.32-.44 2.33-.52 2.35-.59 2.37-.67 2.39-.75 2.39-1135.88-1135.886.75-2.391.67-2.381.59-2.37.52-2.354.44-2.335.36-2.313.29-2.286.21-2.257.14-2.224.07-2.188-.01-2.148-.08-2.105-.15-2.059-.22-2.007-.28-1.954-.36-1.898-.43-1.837-.49-1.771-.56-1.706-.62-1.634-.69-1.56-.75-1.482-.82-1.401-.88-1.315-.94-1.229z"/><path d="m1252.96 756.734 1135.88 1135.886-.8 2.33-.87 2.28-.91 2.23-.97 2.17-1.02 2.12-1.06 2.05-1.11 1.99-1.15 1.92-1.19 1.85-1.22 1.79-1.26 1.71-1.29 1.63-1.32 1.56-1.35 1.48-1.37 1.4-1.39 1.31-1.41 1.23-1.42 1.14-1.44 1.05-1.45.96-1.46.86-1.46.76-1.47.67-1.47.56-1.47.46-1.46.35-1.46.24-1.44.14-1.44.02-1.42-.1-1.41-.21-1.38-.34-1135.88-1135.879 1.38.334 1.41.214 1.42.096 1.44-.019 1.44-.134 1.46-.243 1.46-.352 1.47-.458 1.47-.562 1.47-.665 1.46-.765 1.46-.861 1.45-.956 1.44-1.049 1.42-1.14 1.41-1.229 1.39-1.314 1.37-1.398 1.35-1.48 1.31-1.559 1.3-1.637 1.25-1.71 1.23-1.785 1.19-1.853 1.15-1.922 1.1-1.988 1.07-2.051 1.02-2.113.96-2.171.92-2.229.86-2.283z"/><path d="m1211.62 794.351 1135.88 1135.879-.76 4.22-.77 4.16-.8 4.09-.83 4.02-.84 3.95-.85 3.87-.88 3.79-.88 3.71-.89 3.62-.9 3.53-.91 3.45-.91 3.34-.91 3.25-.91 3.15-.91 3.05-.9 2.94-.89 2.83-.89 2.72-.87 2.6-.86 2.49-.85 2.36-.82 2.23-.81 2.11-.78 1.98-.76 1.85-.73 1.71-.71 1.56-.67 1.43-.64 1.28-.6 1.13-.57.98-.53.82-1135.88-1135.882.53-.824.57-.978.6-1.13.64-1.28.67-1.425.7-1.568.74-1.708.76-1.845.78-1.978.8-2.11.83-2.237.84-2.361.86-2.484.88-2.602.88-2.717.9-2.831.9-2.94.91-3.047.91-3.15.91-3.251.91-3.348.91-3.443.9-3.534.89-3.624.88-3.707.88-3.79.85-3.871.84-3.946.82-4.019.81-4.09.77-4.158z"/><path d="m1107.83 952.899 1135.88 1135.881v34.36l-1135.88-1135.883z"/><path d="m1107.83 987.257 1135.88 1135.883v25.47l-1135.88-1135.88z"/><path d="m1497.49 1227.69 1135.88 1135.88-55.62 260.68-1135.88-1135.88z"/><path d="m1107.83 1012.73c169.554 74.589 218.857 113.453 239.17 131.434 7.98426 7.06418 15.065 19.0051 21.4902 34.3335h82.9666c25.2272 0 51.4772 22.6595 46.0796 48.9237-.0153543.0897638-.034252.179528-.0531496.269292l-55.6182 260.678c-5.62914 26.3776-20.7118 49.1918-46.0276 49.1918h-126.88v2.26417h133.352c3.11575 0 5.66221 2.72481 5.66221 6.05197v32.074c0 3.32953-2.54646 6.05315-5.66221 6.05315h-761.34c-3.11457 0-5.66103-2.72362-5.66103-6.05315v-32.074c0-3.32717 2.54646-6.05197 5.66103-6.05197h138.066v-2.26417h-126.878c-25.3158 0-40.3996-22.8142-46.0276-49.1918l-55.6193-260.678c-.0188977-.0897638-.0377953-.179528-.0519685-.269292-5.39764-26.2642 20.8524-48.9237 46.0796-48.9237h82.9678c6.4252-15.3284 13.5059-27.2693 21.489-34.3335 20.2441-17.9138 71.1119-57.5705 239.177-131.639v-25.2614-34.3595c-34.767-24.4713-67.1552-54.4134-77.9658-70.3347-5.37284-7.90985-17.8205-42.5575-25.7209-87.6355-14.0646 1.25787-30.5103-14.778-38.2205-38.1981-8.413-25.5319-3.25512-50.1744 11.5122-55.0406 4.16221-1.37008 8.64449-1.02165 13.1244.757087-10.2614-99.8835 19.0158-182.141 98.8631-219.209 48.7264-22.6205 143.078-23.9492 205.949-10.9902 72.4772 14.9398 98.0765 83.6977 90.2032 225.258.219685 3.7441.376772 7.48938.473622 11.2287 7.51182-6.57875 15.7736-9.43938 23.0575-7.04056 14.7685 4.8626 19.9252 29.5051 11.511 55.0371-8.29016 25.1788-26.6752 41.824-41.3445 37.617-7.89449 45.3603-20.426 80.2713-25.8236 88.2166-10.8142 15.9213-43.1977 45.8611-77.9611 70.3312v34.3583 25.4705z"/></g><path d="m1024-.0011811c565.539 0 1024 458.462 1024 1024 0 565.539-458.462 1024-1024 1024-565.539 0-1024-458.462-1024-1024 0-565.539 458.462-1024 1024-1024z" fill="none"/><path d="m945.907 1010c-172.645 75.6898-224.437 116.042-244.909 134.158-31.5473 27.9177-48.9981 131.98-67.6064 220.335h390.606 390.611c-18.6071-88.3548-36.0567-192.417-67.6064-220.335-20.465-18.1158-70.3583-57.43-243.012-133.122l-158.084-1.03583z" fill="#fdc"/><path d="m1107.83 859.131v191.377c-46.1079 56.4685-121.554 54.515-167.658 0v-191.377c0-103.335 167.658-103.335 167.658 0z" fill="#fdc"/><path d="m1107.83 859.131v128.126c-31.7256 23.1236-62.2997 36.078-83.83 36.078-21.5292 0-52.1091-12.9543-83.8276-36.0733v-128.131c0-103.335 167.658-103.335 167.658 0z" fill="#f6c4aa"/><path d="m809.78 701.693c14.7602-4.85906 33.5481 11.8949 41.9552 37.4303 8.41536 25.5343 3.25512 50.1756-11.5051 55.0371-14.7673 4.86378-33.5563-11.8925-41.9622-37.4268-8.413-25.5319-3.25512-50.1744 11.5122-55.0406z" fill="#fdc"/><path d="m1241.45 701.697c-14.7673-4.8626-33.5551 11.8913-41.9634 37.4268-8.40591 25.5343-3.25394 50.1756 11.5134 55.0371 14.7662 4.86378 33.554-11.8937 41.9611-37.4268 8.41418-25.5319 3.25748-50.1744-11.511-55.0371z" fill="#fdc"/><path d="m1024 515.546c-281.348 0-180.168 339.963-161.789 367.022 20.263 29.8418 116.336 108.946 161.789 108.946 45.4642 0 141.525-79.1008 161.796-108.946 18.3851-27.0638 119.56-367.022-161.796-367.022z" fill="#fdc"/><path d="m960.315 592.262c-47.217-31.2555-107.753 86.5501-123.997 182.306-34.5485-131.343-12.9473-245.648 85.4493-291.326 48.7264-22.6205 143.078-23.9492 205.949-10.9902 82.4351 16.9925 104.226 103.608 85.0961 287.781-17.3658-77.8701-78.6886-200.211-125.127-167.77-38.6882 27.0272-88.6359 25.6358-127.37 0z" fill="#424242"/><path d="m933.796 852.82c61.5898 23.8217 131.158 21.4949 180.415 0-19.6902 50.9776-152.348 51.3898-180.415 0z" fill="#f6c4aa"/><path d="m880.939 1040.28c-121.404 57.0012-162.302 89.119-179.941 104.727-31.5473 27.9154-48.9981 131.974-67.6111 220.335h390.611 390.616c-18.6118-88.3607-36.0614-192.422-67.6111-220.335-17.0398-15.0862-54.5067-44.8748-166.233-98.1142-.797245.82441-1.89449 1.40788-2.38347 2.47323-30.4311 66.6308-84.1064 104.616-139.823 123.542-77.2323-15.1453-143.552-75.0119-153.843-127.39-1.25433-1.78228-2.52047-3.48898-3.78071-5.23819z" fill="#01579b"/><path d="m681.19 1175.45c-19.8673 44.7579-33.4985 121.96-47.8028 189.892h158.573c-3.54803-110.828-3.74174-169.774-110.77-189.892z" fill="#ffa726"/><path d="m1366.81 1175.45c19.8744 44.7579 33.4985 121.96 47.8028 189.892h-158.573c3.54095-110.828 3.7441-169.774 110.77-189.892z" fill="#ffa726"/><path d="m880.939 1040.28c-11.4862 5.39174-22.2508 10.5602-32.3422 15.5138 29.361 61.1611 83.0233 122.772 189.966 147.015 92.8902-27.9721 141.643-84.8457 169.683-142.566-8.62796-4.27677-17.7638-8.72363-27.4772-13.35-.797245.82441-1.89449 1.40788-2.38347 2.47323-30.4311 66.6308-84.1064 104.616-139.823 123.542-77.2323-15.1453-143.552-75.0119-153.843-127.39-1.25433-1.78228-2.52047-3.48898-3.78071-5.23819z" fill="#ffa726"/><path d="m640.972 1539.82h761.34c3.11575 0 5.66221 2.72362 5.66221 6.05197v32.074c0 3.32953-2.54646 6.05315-5.66221 6.05315h-761.34c-3.11457 0-5.66103-2.72362-5.66103-6.05315v-32.074c0-3.32835 2.54646-6.05197 5.66103-6.05197z" fill="#616161"/><path d="m1395.84 1537.56c25.3158 0 40.3985-22.813 46.0276-49.193l55.6182-260.677c5.62914-26.3788-20.713-49.193-46.0264-49.193-257.743 0-597.175 0-854.918 0-25.3134 0-51.6556 22.8142-46.0276 49.193l55.6193 260.677c5.62796 26.3799 20.7118 49.193 46.0276 49.193h743.679z" fill="#b0b0b0"/><path d="m1497.54 1227.42c5.39292-26.2654-20.8524-48.9237-46.0796-48.9237-257.743 0-597.175 0-854.918 0-25.2272 0-51.4725 22.6583-46.0796 48.9237h947.077z" fill="#a8a8a8"/><path d="m779.038 1536.81h71.0432v4.41153h-71.0432z" fill="#424242"/><path d="m1197.92 1536.81h71.0441v4.41153h-71.0441z" fill="#424242"/><path d="m672.728 1549.37h82.765v25.079h-82.765z" fill="#424242"/><path d="m678.563 1553.29h9.04337v17.2392h-9.04337z" fill="#bdbdbd"/><path d="m693.01 1553.29h9.04337v17.2392h-9.04337z" fill="#bdbdbd"/><path d="m707.458 1553.29h9.04337v17.2392h-9.04337z" fill="#bdbdbd"/><path d="m721.905 1553.29h9.04424v17.2392h-9.04424z" fill="#bdbdbd"/><path d="m736.352 1553.29h9.04337v17.2392h-9.04337z" fill="#bdbdbd"/><path d="m1287.79 1552.19h82.765v19.4406h-82.765z" fill="#424242"/><path d="m1298.97 1555.44h60.4162v12.9382h-60.4162z" fill="#bdbdbd"/><path d="m1293.02 1559.97c1.00512 0 1.8189.870473 1.8189 1.94528 0 1.0748-.81378 1.94528-1.8189 1.94528-1.0063 0-1.82008-.870473-1.82008-1.94528 0-1.0748.81378-1.94528 1.82008-1.94528z" fill="#bdbdbd"/><path d="m1365.04 1559.97c1.00512 0 1.82008.870473 1.82008 1.94528 0 1.0748-.814961 1.94528-1.82008 1.94528-1.00512 0-1.82008-.870473-1.82008-1.94528 0-1.0748.814961-1.94528 1.82008-1.94528z" fill="#bdbdbd"/><path d="m1293.02 1559.52c.616536 0 1.17756.269292 1.58032.701575.405118.432284.656693 1.0311.656693 1.69016 0 .659056-.251575 1.25787-.656693 1.69016-.402756.432284-.96378.701575-1.58032.701575-.616536 0-1.17756-.269292-1.58268-.701575-.402756-.432284-.655512-1.0311-.655512-1.69016 0-.659056.252756-1.25787.655512-1.69016.405118-.432284.966142-.701575 1.58268-.701575zm.992127 1.3311c-.252756-.269292-.604725-.438189-.992127-.438189-.388583 0-.740552.168898-.993308.438189-.251575.269292-.408662.644882-.408662 1.06063 0 .414567.157087.790158.408662 1.06063.252756.269292.604725.437008.993308.437008.387402 0 .739371-.167717.992127-.437008.251575-.270473.409843-.646063.409843-1.06063 0-.415748-.158268-.791339-.409843-1.06063z" fill="#212121" fill-rule="nonzero"/><path d="m1365.04 1559.52c.617717 0 1.17874.269292 1.5815.701575.405118.432284.656693 1.0311.656693 1.69016 0 .659056-.251575 1.25787-.656693 1.69016-.402756.432284-.96378.701575-1.5815.701575-.616536 0-1.17756-.269292-1.5815-.701575-.403937-.432284-.655512-1.0311-.655512-1.69016 0-.659056.251575-1.25787.655512-1.69016.403937-.432284.964961-.701575 1.5815-.701575zm.992127 1.3311c-.251575-.269292-.603544-.438189-.992127-.438189s-.739371.168898-.992127.438189c-.252756.269292-.409843.644882-.409843 1.06063 0 .414567.157087.790158.409843 1.06063.252756.269292.603544.437008.992127.437008s.740552-.167717.992127-.437008c.252756-.270473.411024-.646063.411024-1.06063 0-.415748-.158268-.791339-.411024-1.06063z" fill="#212121" fill-rule="nonzero"/><g fill="#bdbdbd"><path d="m790.199 1554.6h120.922v3.01705h-120.922z"/><path d="m790.199 1560.4h120.922v3.01878h-120.922z"/><path d="m790.199 1566.21h120.922v3.01705h-120.922z"/><path d="m1132.17 1554.6h120.922v3.01705h-120.922z"/><path d="m1132.17 1560.4h120.922v3.01878h-120.922z"/><path d="m1132.17 1566.21h120.922v3.01705h-120.922z"/><path d="m1024 1315.66c35.517 0 64.3075 23.4957 64.3075 52.48 0 28.9831-28.7906 60.8386-64.3075 60.8386-35.5158 0-64.3075-31.8555-64.3075-60.8386 0-28.9843 28.7918-52.48 64.3075-52.48z"/></g><path d="m1122.51 694.692c55.4079-4.68071 85.7516 8.04686 91.428 10.6854 6.84095 3.19252 5.2689 26.2217-.52441 30.8079-5.79213 4.59095-10.5272 22.9382-24.2268 45.8764-8.80512 14.7473-39.639 20.9906-66.6768 22.6595v-6.44174c22.1032-1.27087 45.2552-6.19252 55.3252-14.8158 20.439-17.5134 22.3866-54.7831 7.37363-72.1312-7.87323-9.11103-35.3173-11.648-62.6989-10.024v-6.61654zm-197.017 0 2.32087.207874c56.8808 5.23819 68.9989 19.0028 74.791 18.3508 6.77599-.766536 14.0976-1.91811 21.0142-1.91811 6.91536 0 14.7473 1.1185 21.7866 1.91811 5.79213.651969 17.902-13.1126 74.7839-18.3508l2.32087-.207874v6.61654l-.282284.0200788c-27.4807 1.65945-63.3249 9.58938-70.363 29.1851-7.03229 19.5921 6.36497 54.6142 25.7988 63.365 8.8193 3.97677 26.4709 5.44725 44.8465 4.40079v6.44174c-15.0295.922442-28.8768.435827-37.1327-.797245-23.1685-3.45-40.5036-38.2441-43.6583-48.7347-7.10788-23.5583-28.3288-23.5583-35.4284 0-3.16181 10.4906-20.4969 45.2847-43.6654 48.7347-8.25709 1.23307-22.1032 1.71969-37.1327.797245v-6.44174c18.3815 1.04646 36.0331-.424016 44.8559-4.40079 19.4232-8.75079 32.8299-43.7729 25.7894-63.365-7.03229-19.5957-42.8835-27.5256-70.356-29.1851l-.28937-.0200788v-6.61654zm-91.428 10.6854c5.68347-2.63858 36.026-15.3662 91.428-10.6854v6.61654c-27.3721-1.63583-54.8197.922442-62.6989 10.024-15.0059 17.348-13.0665 54.6178 7.37245 72.1312 10.0701 8.62323 33.2221 13.5449 55.3264 14.8158v6.44174c-27.039-1.6689-57.8729-7.91221-66.6709-22.6595-13.6961-22.9382-18.4335-41.2855-24.2256-45.8764-5.8004-4.58622-7.37245-27.6154-.531496-30.8079z" fill="#212121"/><path d="m862.792 711.332c7.90631-9.13229 35.517-11.6693 62.9882-10.0039 27.4725 1.65945 63.3237 9.58938 70.356 29.1851 7.04056 19.5921-6.36615 54.6142-25.7894 63.365-19.441 8.76261-81.7418 5.38701-100.182-10.415-20.439-17.5134-22.3784-54.7831-7.37245-72.1312z" fill="#fdc"/><path d="m1185.21 711.332c-7.89686-9.13229-35.5099-11.6693-62.9812-10.0039-27.4807 1.65945-63.3249 9.58938-70.363 29.1851-7.03229 19.5921 6.36497 54.6142 25.7988 63.365 19.4315 8.76261 81.7312 5.38701 100.172-10.415 20.439-17.5134 22.3866-54.7831 7.37363-72.1312z" fill="#fdc"/></svg>